inDegrees=no
num_controls=7
num_derivatives=13
num_iterations=77
num_multipliers=7
num_parameters=0
num_slacks=7
num_states=26
objective=0.455787
objective_accelerations=0.047409
objective_balance=0.000879
objective_effort=0.038582
objective_height=0.362195
objective_ligament=0.006723
solver_duration=972.808784
status=Solve_Succeeded
success=true
DataType=double
version=3
OpenSimVersion=4.5
endheader
time	/jointset/ground_pelvis/pelvis_tilt/value	/jointset/ground_pelvis/pelvis_tx/value	/jointset/ground_pelvis/pelvis_ty/value	/jointset/hip_r/hip_flexion_r/value	/jointset/hip_r/hip_adduction_r/value	/jointset/hip_r/hip_rotation_r/value	/jointset/back/lumbar_extension/value	/jointset/patellofemoral_r/patellar_flexion_r/value	/jointset/knee_r/knee_flexion_r/value	/jointset/knee_r/knee_adduction_r/value	/jointset/knee_r/knee_rotation_r/value	/jointset/ankle_r/ankle_angle_r/value	/jointset/subtalar_r/subtalar_angle_r/value	/jointset/ground_pelvis/pelvis_tilt/speed	/jointset/ground_pelvis/pelvis_tx/speed	/jointset/ground_pelvis/pelvis_ty/speed	/jointset/hip_r/hip_flexion_r/speed	/jointset/hip_r/hip_adduction_r/speed	/jointset/hip_r/hip_rotation_r/speed	/jointset/back/lumbar_extension/speed	/jointset/patellofemoral_r/patellar_flexion_r/speed	/jointset/knee_r/knee_flexion_r/speed	/jointset/knee_r/knee_adduction_r/speed	/jointset/knee_r/knee_rotation_r/speed	/jointset/ankle_r/ankle_angle_r/speed	/jointset/subtalar_r/subtalar_angle_r/speed	/forceset/tau_hip_flexion_r	/forceset/tau_hip_adduction_r	/forceset/tau_hip_rotation_r	/forceset/tau_knee_flexion_r	/forceset/tau_ankle_angle_r	/forceset/tau_subtalar_angle_r	/forceset/tau_lumbar_extension	lambda_cid13_p0	lambda_cid14_p0	lambda_cid14_p1	lambda_cid14_p2	lambda_cid14_p3	lambda_cid14_p4	lambda_cid14_p5	/jointset/ground_pelvis/pelvis_tilt/accel	/jointset/ground_pelvis/pelvis_tx/accel	/jointset/ground_pelvis/pelvis_ty/accel	/jointset/hip_r/hip_flexion_r/accel	/jointset/hip_r/hip_adduction_r/accel	/jointset/hip_r/hip_rotation_r/accel	/jointset/back/lumbar_extension/accel	/jointset/patellofemoral_r/patellar_flexion_r/accel	/jointset/knee_r/knee_flexion_r/accel	/jointset/knee_r/knee_adduction_r/accel	/jointset/knee_r/knee_rotation_r/accel	/jointset/ankle_r/ankle_angle_r/accel	/jointset/subtalar_r/subtalar_angle_r/accel	gamma_cid13_p0	gamma_cid14_p0	gamma_cid14_p1	gamma_cid14_p2	gamma_cid14_p3	gamma_cid14_p4	gamma_cid14_p5
0.5	-0.1383313247821959	0.02743286835387617	0.8060465272365975	0.889090894066296	-0.2519575117525706	-0.04860437191757595	-0.646922278844891	0.9650168334001751	0.9650168334001823	0.06168159031448481	0.1739095157108015	0.2901674340219911	0.09101669265498803	-0.3561898394069064	-0.2020420670795	-0.4981242181038064	1.862594914232571	-0.0387413290498461	0.530511906714583	-0.7373874132268491	1.954834772640813	1.954834772640835	-0.07454574803240954	-0.003314484353244992	0.527221428357129	0.1104123589113555	-0.1954674041626766	0.003076358187123031	0.03623498585325166	-0.2968155748516376	0.006279837635177676	-0.01458432801150826	0.2390252182076459	-7.46741684277213	-41.21451475686681	-12.42164223630934	1.113042598396563	-4.629894321906078	-642.3444515538722	58.37904884046645	0.2871815882006183	0.5846010996866827	-0.3953650104777648	-1.237615823895397	0.245146837404217	-0.145170247984217	1.784515686607757	-1.438246920186846	-1.43824692018685	0.4544372178163725	0.01531886680070187	-0.5185357759193834	0.2710715110833889	-6.231611020162759e-08	3.015205874705645e-08	1.521464214017824e-06	5.924816710821684e-08	-1.722571499441223e-07	-1.555021626862655e-07	9.867843280945798e-07
0.51	-0.1418780528156597	0.02544184625558351	0.8010466780606448	0.9076519764696909	-0.2523329964682458	-0.04330866665959063	-0.6542063327932836	0.9844902841276265	0.9844902841275289	0.06095824909174759	0.1738788005762748	0.2954126878559425	0.09213365143552177	-0.3530978543551999	-0.196146857814725	-0.5017332911093665	1.849366531266073	-0.03634329997807025	0.5285570928161621	-0.7193346720505475	1.939586717946278	1.939586717946298	-0.07017329636018223	-0.002836029014872173	0.5217535217294349	0.1129822831667051	-0.201901993969507	0.004282734691482395	0.03695103265279226	-0.3016929540848421	0.005118870049819568	-0.01451558589606309	0.2450222291797525	-6.5506672542722	-41.90780636902406	-12.66413800650635	1.32413582193295	-4.500712263444354	-647.2767389209598	58.48927751487784	0.3288997700688169	0.5942700646318628	-0.3268592663255666	-1.403699144670841	0.2390832621830103	-0.2315636590687717	1.828958993266746	-1.608371337057648	-1.608371337057862	0.4212382357353383	0.06304508089852025	-0.5723326847020844	0.250634635412355	-5.476774796911086e-08	3.472965917990693e-08	1.492585759711747e-06	1.057981280933844e-07	-1.746828437713592e-07	-1.411428388676856e-07	9.85159233691913e-07
0.52	-0.1453921224373231	0.02351023409489052	0.7960141019904908	0.926073125121093	-0.2526841104291786	-0.03803469488025254	-0.6613071981978877	1.003803196989535	1.003803196989338	0.06027715020448773	0.1738526572378398	0.3006009797079162	0.09327644580913928	-0.3496581570469716	-0.1901600795595643	-0.5046695969441362	1.834608163833829	-0.03386717810153939	0.5261652109858318	-0.700749704469237	1.922727199532912	1.922727199532931	-0.06609728093557601	-0.002400125134781329	0.5158290319614337	0.115579477528119	-0.2083365837763355	0.005489111195828495	0.03766707945235005	-0.3065703333180459	0.003957902464456619	-0.01444684378064022	0.2510192401518622	-5.697716113109847	-42.599499204864	-12.90127165225116	1.528569123022815	-4.398335913217193	-652.1854465930235	58.63237748019551	0.3567240395049722	0.6029148977638331	-0.260811576319681	-1.543612717044482	0.2607653983552151	-0.2325838343661273	1.890960967609457	-1.760539663952872	-1.760539663952858	0.3951499682921726	0.006808575144307742	-0.6098524039808354	0.2765255322962596	-4.780838509432712e-08	3.764869534319687e-08	1.440869879589722e-06	1.417244254096406e-07	-1.741438950027627e-07	-1.2610324834614e-07	9.651708394946237e-07
0.53	-0.1488701413970896	0.02163888935632152	0.7909555366514985	0.944339240528871	-0.253010179245892	-0.0327868414301669	-0.6682196337513296	1.022939670689621	1.022939670689478	0.05963536917309602	0.1738307472415223	0.3057278190883723	0.09444519930185552	-0.3458907563297895	-0.1840986041785253	-0.5069290661544812	1.818369126903927	-0.03134858045309824	0.5233304258173974	-0.6816621362257639	1.904314757447978	1.904314757447988	-0.0622934854758387	-0.001971519342703736	0.5094679844697897	0.1181530920043077	-0.2146256830038549	0.006604762348066456	0.03833764038538043	-0.311598772832991	0.002837962788001902	-0.01444076478051533	0.2568620813092906	-4.90883457155734	-43.28838315576179	-13.16739178668161	1.740209377706663	-4.245463501713889	-657.1422367863885	58.74618207227444	0.3949854444331944	0.6092686824937699	-0.1913775291513146	-1.70091194353722	0.2472110213397391	-0.3202863407381729	1.928945251682054	-1.919505105569066	-1.919505105570378	0.3680016740526407	0.06251407962051891	-0.6598996823035047	0.2453010979130642	-4.14930528349499e-08	3.965045991145849e-08	1.385709848657941e-06	1.709671552220356e-07	-1.72728998463183e-07	-1.117429007844564e-07	9.439337061666355e-07
0.54	-0.1523088388783619	0.019828460336407	0.7858778040332515	0.9624355930148368	-0.2533111012714701	-0.02756960792829783	-0.6749389355225435	1.041884438243894	1.041884438243809	0.05903062756414395	0.1738134488028042	0.3107889142418026	0.09563919327786029	-0.3417938613482778	-0.1779769358286677	-0.5085030527951906	1.800655579471061	-0.02883781987460896	0.5200412213427209	-0.6621229480236637	1.884385970370829	1.88438597037083	-0.05868939644657584	-0.001477813615385169	0.5026801865562527	0.120627574185813	-0.2209147822313681	0.007720413500303286	0.03900820131843405	-0.3166272123479343	0.001718023111546084	-0.01443468578039308	0.2627049224667241	-4.183790373874572	-43.97647068916313	-13.42854699014928	1.945546173309797	-4.119547420780259	-662.0871929769788	58.89102952621572	0.4226228923708569	0.6149534915275285	-0.1237150623925538	-1.838514817637177	0.2591979843648364	-0.3234676956145276	1.981284959334866	-2.063808662395938	-2.063808662395949	0.3552086821972998	0.01982856219250243	-0.6952024883594154	0.2566990733595963	-3.589026508623523e-08	4.063737080011428e-08	1.326739267894092e-06	1.928152997110095e-07	-1.703449682195369e-07	-9.813405607198159e-08	9.213149891195761e-07
0.55	-0.1557049974669687	0.01807948810453137	0.7807877591727981	0.9803476438464402	-0.2535869517728678	-0.02238741927218724	-0.681460683120471	1.060622542632803	1.060622542632813	0.05846087515759918	0.1738012444079927	0.3157800964258732	0.09685745005967941	-0.3373853191969089	-0.1718127908860538	-0.5093903534477089	1.781518796562961	-0.02633708503694253	0.5163278455050769	-0.6421663856444192	1.862997459879182	1.862997459879183	-0.05529242896103238	-0.000959018375048632	0.4954929139554306	0.1230022357370504	-0.2270363232207923	0.008761041669927298	0.03963432394630968	-0.3217375522717045	0.0005854145030734484	-0.0144741459312088	0.2683606450071258	-3.522054787696919	-44.67385794927641	-13.71178559830483	2.155177428028709	-3.927277308274892	-667.0115691163112	59.012891980718	0.4578553088850734	0.617819135791386	-0.05392083172808147	-1.986623029193048	0.2448876549252419	-0.4056598405447155	2.011869764791085	-2.211982805447257	-2.211982805447241	0.327410283647051	0.06859502265378423	-0.7400272100337548	0.2248453085742582	-3.066969895408523e-08	4.132220472660096e-08	1.263916861970387e-06	2.104624005221456e-07	-1.674136452889361e-07	-8.462307417038157e-08	8.952610449090412e-07
0.5600000000000001	-0.1590554935475877	0.01639229215011462	0.7756923046528107	0.9980612542486053	-0.2538379196415961	-0.01724444183699635	-0.6877810595170913	1.079139639804214	1.079139639804322	0.05792418632629067	0.1737943659691248	0.3206974983711179	0.09809885257952472	-0.3326613597509385	-0.1656216803368929	-0.5095849847020768	1.760967493583003	-0.02386129334096688	0.5121989771592189	-0.6218487077623063	1.840184526871606	1.840184526871607	-0.0520766813989216	-0.0004126224267300216	0.4879241387910028	0.1252567217910264	-0.2331578642102095	0.009801669839548294	0.04026044657419762	-0.3268478921954731	-0.0005471941054008416	-0.01451360608203016	0.2740163675475335	-2.922653471174954	-45.37135306929511	-13.99039616175899	2.35876305445482	-3.761619802988691	-671.9375487350198	59.16468402170433	0.4857063512911227	0.6203466128369322	0.0148188172375374	-2.121418832008509	0.2542093560266713	-0.4065661972573258	2.053508059908528	-2.348693165581774	-2.348693165581745	0.3189646975107811	0.02534870378891731	-0.7715030010805374	0.2326639739073154	-2.590779876181282e-08	4.16445462984847e-08	1.196472265854855e-06	2.230682489198766e-07	-1.638255711339897e-07	-7.122952764183128e-08	8.650848281023359e-07
